Coordinates
version=1
nRows=54
nColumns=12
inDegrees=yes

Units are S.I. units (second, meters, Newtons, ...)
Angles are in degrees

endheader
time	SC_y	SC_z	SC_x	AC_y	AC_z	AC_x	GH_y	GH_z	GH_yy	EL_x	PS_y
       0.0              -34.74          35.53          17.26           37.0         -5.967          3.496          48.26          83.75         -76.56          48.98          46.96
    0.0417              -34.75          35.53          17.27           37.0         -5.966          3.494          48.27          83.74         -76.55          48.99          46.97
   0.08341              -34.75          35.52          17.28          37.01         -5.965          3.493          48.28          83.73         -76.54           49.0          46.97
    0.1251              -34.75          35.52          17.29          37.01         -5.965          3.491          48.29          83.71         -76.53          49.01          46.98
    0.1668              -34.75          35.52           17.3          37.01         -5.964          3.489           48.3           83.7         -76.52          49.03          46.99
    0.2085              -34.76          35.51          17.31          37.02         -5.963          3.487          48.31          83.69         -76.51          49.04           47.0
    0.2502              -34.76          35.51          17.32          37.02         -5.963          3.485          48.32          83.68          -76.5          49.06          47.01
    0.2919              -34.76          35.51          17.33          37.03         -5.962          3.483          48.34          83.66         -76.49          49.08          47.02
    0.3336              -34.77           35.5          17.35          37.03         -5.961          3.481          48.35          83.65         -76.47          49.09          47.03
    0.3753              -34.77           35.5          17.36          37.03          -5.96          3.478          48.37          83.63         -76.46          49.11          47.04
     0.417              -34.78          35.49          17.38          37.04         -5.959          3.475          48.38          83.61         -76.44          49.14          47.05
    0.4588              -34.78          35.49          17.39          37.05         -5.958          3.472           48.4          83.59         -76.43          49.16          47.07
    0.5005              -34.79          35.48          17.41          37.05         -5.957          3.469          48.42          83.57         -76.41          49.18          47.08
    0.5422              -34.79          35.47          17.43          37.06         -5.955          3.466          48.44          83.55         -76.39          49.21           47.1
    0.5839               -34.8          35.47          17.45          37.07         -5.954          3.462          48.46          83.52         -76.37          49.24          47.11
    0.6256              -34.81          35.46          17.47          37.07         -5.953          3.458          48.48           83.5         -76.35          49.27          47.13
    0.6673              -34.81          35.45          17.49          37.08         -5.951          3.454          48.51          83.47         -76.32           49.3          47.15
     0.709              -34.82          35.44          17.52          37.09         -5.949          3.449          48.54          83.44          -76.3          49.34          47.17
    0.7507              -34.83          35.43          17.55           37.1         -5.947          3.444          48.57           83.4         -76.27          49.38           47.2
    0.7924              -34.84          35.42          17.58          37.11         -5.945          3.438           48.6          83.37         -76.23          49.42          47.22
    0.8341              -34.85          35.41          17.61          37.12         -5.943          3.432          48.64          83.32          -76.2          49.47          47.25
    0.8758              -34.86           35.4          17.65          37.14          -5.94          3.425          48.68          83.28         -76.16          49.53          47.28
    0.9175              -34.88          35.38          17.69          37.15         -5.937          3.417          48.72          83.23         -76.12          49.59          47.32
    0.9592              -34.89          35.37          17.74          37.17         -5.934          3.409          48.77          83.17         -76.07          49.65          47.36
     1.001              -34.91          35.35          17.79          37.19         -5.931            3.4          48.82          83.11         -76.02          49.72           47.4
     1.043              -34.92          35.33          17.85          37.21         -5.927          3.389          48.88          83.04         -75.96          49.81          47.45
     1.084              -34.94          35.31          17.91          37.23         -5.922          3.377          48.95          82.97         -75.89           49.9           47.5
     1.126              -34.97          35.28          17.99          37.26         -5.918          3.364          49.03          82.88         -75.82           50.0          47.56
     1.168              -34.99          35.26          18.07          37.29         -5.912          3.349          49.12          82.78         -75.73          50.11          47.63
     1.209              -35.02          35.23          18.16          37.32         -5.906          3.332          49.21          82.67         -75.64          50.25           47.7
     1.251              -35.05          35.19          18.27          37.36         -5.899          3.313          49.33          82.55         -75.53           50.4          47.79
     1.293              -35.09          35.15          18.39           37.4          -5.89          3.291          49.46           82.4          -75.4          50.57          47.89
     1.335              -35.13           35.1          18.53          37.45         -5.881          3.265           49.6          82.23         -75.26          50.77          48.01
     1.376              -35.18          35.04          18.69          37.51          -5.87          3.236          49.78          82.04         -75.09           51.0          48.15
     1.418              -35.24          34.98          18.88          37.57         -5.857          3.201          49.98          81.81         -74.89          51.27           48.3
      1.46              -35.31           34.9          19.11          37.65         -5.842           3.16          50.22          81.54         -74.66          51.58          48.49
     1.501              -35.39          34.81          19.37          37.75         -5.824          3.111           50.5          81.22         -74.39          51.96          48.71
     1.543              -35.49           34.7          19.69          37.86         -5.802          3.053          50.84          80.84         -74.06          52.41          48.98
     1.585              -35.61          34.57          20.08           38.0         -5.776          2.983          51.25          80.37         -73.66          52.96           49.3
     1.626              -35.76          34.41          20.55          38.17         -5.743          2.896          51.75          79.81         -73.17          53.63          49.69
     1.668              -35.94          34.21          21.14          38.37         -5.704           2.79          52.37          79.11         -72.57          54.46          50.18
      1.71              -36.17          33.96          21.87          38.63         -5.655          2.657          53.15          78.24         -71.82          55.49          50.79
     1.752              -36.45          33.65          22.78          38.95         -5.592           2.49          54.12          77.14         -70.88          56.79          51.55
     1.793              -36.81          33.26          23.95          39.37         -5.513          2.278          55.36          75.74         -69.68          58.44          52.52
     1.835              -37.27          32.75          25.44           39.9         -5.412          2.006          56.94          73.95         -68.14          60.55          53.76
     1.877              -37.86           32.1          27.36          40.57         -5.282          1.657          58.97          71.66         -66.17          63.26          55.35
     1.918              -38.62          31.26           29.8          41.44         -5.116          1.211          61.57          68.73         -63.65          66.72          57.38
      1.96              -39.57          30.22          32.88          42.53         -4.908         0.6504          64.83          65.05         -60.49          71.07          59.94
     2.002              -40.73          28.94          36.63          43.86         -4.654       -0.03271          68.81          60.56         -56.63          76.38          63.06
     2.044              -42.07          27.47          40.98          45.39         -4.359        -0.8245          73.42          55.36         -52.16          82.53          66.67
     2.085              -43.53          25.86          45.68          47.06          -4.04         -1.682          78.42          49.72         -47.31          89.19          70.58
     2.127              -44.98          24.26          50.39          48.73         -3.721         -2.539          83.41          44.09         -42.47          95.84           74.5
     2.169              -46.32          22.79          54.73          50.26         -3.427         -3.331          88.02          38.89          -38.0          102.0          78.11
      2.21              -47.48          21.51          58.48          51.59         -3.172         -4.014           92.0           34.4         -34.14          107.3          81.22
